<?xml version="1.0" encoding="UTF-8"?>
<svg xmlns="http://www.w3.org/2000/svg" xmlns:xlink="http://www.w3.org/1999/xlink" viewBox="0 0 30.83 17.84">
  <defs>
    <style>
      .cls-1 {
        fill: url(#linear-gradient-2);
      }

      .cls-2 {
        fill: url(#linear-gradient);
      }

      .cls-3 {
        isolation: isolate;
      }

      .cls-4 {
        fill: #fffcf6;
        mix-blend-mode: overlay;
      }

      .cls-5 {
        fill: #49f7fc;
        mix-blend-mode: multiply;
        opacity: .22;
      }

      .cls-6 {
        fill: #58e3fc;
      }
    </style>
    <linearGradient id="linear-gradient" x1=".5" y1="8.92" x2="30.33" y2="8.92" gradientUnits="userSpaceOnUse">
      <stop offset="0" stop-color="#fffce8"/>
      <stop offset=".52" stop-color="#faf8ea"/>
      <stop offset=".92" stop-color="#f2f2f0"/>
    </linearGradient>
    <linearGradient id="linear-gradient-2" x1="1" y1="8.92" x2="29.83" y2="8.92" xlink:href="#linear-gradient"/>
  </defs>
  <g class="cls-3">
    <g id="Layer_2" data-name="Layer 2">
      <g id="Layer_1-2" data-name="Layer 1">
        <g>
          <g>
            <path class="cls-2" d="M12.08,17.34c-.17,0-.34,0-.51-.01-1.91-.08-3.02-.94-3.61-1.65-.67-.78-.98-1.64-1.1-2.15-.05,0-.1,0-.15,0-.84,0-2.45-.07-3.8-.56-2.29-.83-2.54-2.37-2.34-3.51.59-3.4,4.95-3.77,6.8-3.77.09,0,.18,0,.26,0-.05-.72.02-1.93.77-3.01.82-1.17,2.2-1.87,4.13-2.1.51-.06,1-.09,1.45-.09,1.85,0,3.17.49,3.95,1.45.21.25.34.51.43.74.51-.32,1.28-.71,2.16-.85.22-.04.44-.06.68-.06.87,0,1.66.29,2.33.88,1.76,1.51,2.67,3.05,3.03,3.76.26-.05.62-.1,1-.1.94,0,1.7.3,2.18.85.55.64.73,1.59.55,2.83-.08.55-.19.97-.34,1.32-.53,1.44-1.65,2.24-3.13,2.24-.25,0-.47-.02-.67-.05-.13.98-.76,2.71-3.6,3.19-.52.09-1.04.14-1.57.14-2.14,0-3.77-.75-4.52-1.18-.5.65-1.71,1.7-4.36,1.7Z"/>
            <path class="cls-6" d="M13.96,1c4.07,0,4.07,2.52,4.07,2.52,0,0,1.12-.96,2.55-1.19.19-.03.39-.05.59-.05.66,0,1.36.2,2.01.75,2.27,1.94,3.07,3.96,3.07,3.96,0,0,.59-.18,1.29-.18,1.16,0,2.62.49,2.23,3.11-.07.47-.16.87-.3,1.19-.6,1.6-1.78,1.94-2.67,1.94-.65,0-1.15-.18-1.15-.18,0,0,.37,2.72-3.21,3.33-.52.09-1.01.13-1.48.13-2.79,0-4.68-1.37-4.68-1.37,0,0-.73,1.89-4.2,1.89-.16,0-.32,0-.49-.01-1.59-.07-2.62-.73-3.26-1.48-.94-1.08-1.08-2.34-1.08-2.34,0,0-.21.01-.56.01-.81,0-2.35-.07-3.63-.53-1.29-.47-2.3-1.34-2.01-2.95.53-3.02,4.54-3.35,6.31-3.35.51,0,.84.03.84.03,0,0-1.08-4.5,4.38-5.13.51-.06.97-.09,1.39-.09M13.96,0c-.47,0-.98.03-1.51.09-2.07.24-3.58,1.02-4.48,2.31-.67.96-.85,2-.87,2.79C3.08,5.25.52,6.77.06,9.37c-.19,1.09-.1,3.06,2.66,4.06,1.31.47,2.83.57,3.75.59.18.56.51,1.3,1.11,1.99.65.77,1.88,1.73,3.97,1.82.18,0,.36.01.53.01,2.44,0,3.78-.86,4.47-1.57.9.46,2.46,1.06,4.4,1.06.55,0,1.11-.05,1.66-.15,2.58-.44,3.62-1.89,3.94-3.14.08,0,.16,0,.24,0,1.71,0,2.99-.92,3.61-2.59.15-.34.27-.8.36-1.4.21-1.39-.01-2.47-.66-3.23-.58-.67-1.46-1.03-2.56-1.03-.26,0-.51.02-.73.05-.46-.83-1.39-2.23-2.97-3.59-.76-.65-1.67-.99-2.66-.99-.25,0-.51.02-.76.07-.71.12-1.35.38-1.86.65-.07-.12-.16-.24-.25-.36-.87-1.08-2.33-1.63-4.34-1.63h0Z"/>
          </g>
          <path class="cls-4" d="M29.77,9.92c-.07.47-.16.87-.3,1.19-2.25-2.18-5.58-2.13-5.58-2.13,0,0,.63-2.55-1.27-3.49-1.87-.94-4.57.82-4.57.82,0,0-2.58-3.47-6.28-2.01-3.7,1.45-1.87,5.08-1.87,5.08,0,0-4.47-1.57-6.23,0-.94.84-.87,2.13-.61,3.12-1.29-.47-2.3-1.34-2.01-2.95.68-3.89,7.15-3.33,7.15-3.33,0,0-1.08-4.5,4.38-5.13,5.46-.63,5.46,2.44,5.46,2.44,0,0,2.91-2.44,5.15-.49,2.27,1.94,3.07,3.96,3.07,3.96,0,0,4.15-1.27,3.51,2.93Z"/>
          <path class="cls-5" d="M29.77,9.92c-.07.47-.16.87-.3,1.19-1.03,2.76-3.82,1.76-3.82,1.76,0,0,.37,2.72-3.21,3.33-3.58.63-6.16-1.24-6.16-1.24,0,0-.8,2.06-4.69,1.87-1.59-.07-2.62-.73-3.26-1.48,4.28-.08,5.01-3.55,7.32-3.82,10.45-1.22,6.83-5.86,4.94-9.2.82-.14,1.76-.02,2.6.7,2.27,1.94,3.07,3.96,3.07,3.96,0,0,4.15-1.27,3.51,2.93Z"/>
          <ellipse class="cls-4" cx="21.47" cy="14.45" rx="2.39" ry="1.18"/>
          <ellipse class="cls-4" cx="13.03" cy="4.75" rx="2.39" ry="1.18"/>
          <path class="cls-4" d="M21.78,12.43c0,.32-.53.59-1.19.59s-1.19-.26-1.19-.59.53-.59,1.19-.59,1.19.26,1.19.59Z"/>
          <ellipse class="cls-4" cx="13.75" cy="7" rx="1.19" ry=".59"/>
          <path class="cls-1" d="M13.96,1.72c3.19,0,3.34,1.63,3.35,1.8,0,.28.16.54.42.66.1.04.2.07.3.07.17,0,.34-.06.47-.17,0,0,1-.84,2.21-1.03.16-.03.32-.04.47-.04.57,0,1.09.2,1.54.58,2.09,1.79,2.86,3.66,2.87,3.68.11.28.38.46.67.46.07,0,.14,0,.21-.03,0,0,.5-.15,1.08-.15s1,.14,1.25.43c.38.44.35,1.25.26,1.85-.07.44-.15.77-.27,1.05-.37.99-1.02,1.47-2,1.47-.5,0-.9-.14-.9-.14-.08-.03-.16-.04-.25-.04-.16,0-.32.06-.45.16-.2.16-.3.41-.26.66.01.08.25,2.03-2.62,2.52-.45.08-.91.12-1.36.12-2.5,0-4.24-1.22-4.25-1.23-.12-.09-.27-.13-.42-.13-.07,0-.13,0-.2.03-.21.06-.39.21-.48.41-.03.06-.66,1.44-3.53,1.44-.15,0-.3,0-.46-.01-1.18-.05-2.1-.46-2.74-1.23-.77-.88-.9-1.94-.9-1.95-.04-.37-.35-.64-.72-.64-.01,0-.03,0-.04,0-.01,0-.21.01-.52.01-.76,0-2.21-.06-3.39-.48-1.6-.58-1.67-1.46-1.55-2.15.43-2.49,4.06-2.76,5.6-2.76.47,0,.77.03.78.03.02,0,.04,0,.06,0,.21,0,.41-.09.55-.25.15-.17.21-.41.16-.64,0-.01-.33-1.5.5-2.68.61-.86,1.7-1.39,3.26-1.57.46-.05.9-.08,1.31-.08M13.96,1c-.42,0-.88.03-1.39.09-5.46.63-4.38,5.13-4.38,5.13,0,0-.33-.03-.84-.03-1.77,0-5.78.34-6.31,3.35-.28,1.62.73,2.48,2.01,2.95,1.28.46,2.82.53,3.63.53.35,0,.56-.01.56-.01,0,0,.14,1.27,1.08,2.34.63.75,1.66,1.41,3.26,1.48.17,0,.33.01.49.01,3.47,0,4.2-1.89,4.2-1.89,0,0,1.89,1.37,4.68,1.37.47,0,.97-.04,1.48-.13,3.58-.61,3.21-3.33,3.21-3.33,0,0,.5.18,1.15.18.89,0,2.08-.34,2.67-1.94.14-.33.23-.73.3-1.19.39-2.62-1.07-3.11-2.23-3.11-.7,0-1.29.18-1.29.18,0,0-.8-2.01-3.07-3.96-.65-.56-1.35-.75-2.01-.75-.2,0-.4.02-.59.05-1.43.23-2.55,1.19-2.55,1.19,0,0,0-2.52-4.07-2.52h0Z"/>
        </g>
      </g>
    </g>
  </g>
</svg>