<?xml version="1.0" encoding="UTF-8"?>
<svg xmlns="http://www.w3.org/2000/svg" xmlns:xlink="http://www.w3.org/1999/xlink" viewBox="0 0 245.48 35.56">
  <defs>
    <style>
      .cls-1 {
        isolation: isolate;
      }

      .cls-2 {
        fill: url(#linear-gradient);
      }

      .cls-2, .cls-3, .cls-4, .cls-5, .cls-6, .cls-7, .cls-8, .cls-9, .cls-10, .cls-11, .cls-12, .cls-13, .cls-14, .cls-15, .cls-16, .cls-17, .cls-18, .cls-19 {
        mix-blend-mode: overlay;
      }

      .cls-3 {
        fill: url(#linear-gradient-8);
      }

      .cls-4 {
        fill: url(#linear-gradient-2);
      }

      .cls-5 {
        fill: url(#linear-gradient-3);
      }

      .cls-6 {
        fill: url(#linear-gradient-4);
      }

      .cls-7 {
        fill: url(#linear-gradient-9);
      }

      .cls-8 {
        fill: url(#linear-gradient-6);
      }

      .cls-9 {
        fill: url(#linear-gradient-5);
      }

      .cls-10 {
        fill: url(#linear-gradient-7);
      }

      .cls-11 {
        fill: url(#linear-gradient-10);
      }

      .cls-12 {
        fill: url(#linear-gradient-12);
      }

      .cls-13 {
        fill: url(#linear-gradient-11);
      }

      .cls-14 {
        fill: url(#linear-gradient-13);
      }

      .cls-15 {
        fill: url(#linear-gradient-14);
      }

      .cls-16 {
        fill: url(#linear-gradient-15);
      }

      .cls-17 {
        fill: url(#linear-gradient-17);
      }

      .cls-18 {
        fill: url(#linear-gradient-16);
      }

      .cls-19 {
        fill: url(#linear-gradient-18);
      }

      .cls-20 {
        opacity: .48;
      }
    </style>
    <linearGradient id="linear-gradient" x1="103.21" y1="9.05" x2="102.51" y2="10.68" gradientUnits="userSpaceOnUse">
      <stop offset="0" stop-color="#fffce8"/>
      <stop offset=".52" stop-color="#faf8ea"/>
      <stop offset=".92" stop-color="#f2f2f0"/>
    </linearGradient>
    <linearGradient id="linear-gradient-2" x1="124.08" y1="21.12" x2="122.71" y2="24.32" xlink:href="#linear-gradient"/>
    <linearGradient id="linear-gradient-3" x1="3.88" y1="4.8" x2="2.48" y2="8.06" xlink:href="#linear-gradient"/>
    <linearGradient id="linear-gradient-4" x1="189.92" y1=".93" x2="188.53" y2="4.19" xlink:href="#linear-gradient"/>
    <linearGradient id="linear-gradient-5" x1="245.13" y1="20.87" x2="243.71" y2="24.17" xlink:href="#linear-gradient"/>
    <linearGradient id="linear-gradient-6" x1="155.15" y1="5.3" x2="152.34" y2="11.86" xlink:href="#linear-gradient"/>
    <linearGradient id="linear-gradient-7" x1="199.56" y1="32.69" x2="198.68" y2="34.75" xlink:href="#linear-gradient"/>
    <linearGradient id="linear-gradient-8" x1="212.27" y1=".98" x2="210.59" y2="4.9" xlink:href="#linear-gradient"/>
    <linearGradient id="linear-gradient-9" x1="82" y1="6.99" x2="80.16" y2="11.3" xlink:href="#linear-gradient"/>
    <linearGradient id="linear-gradient-10" x1="2.06" y1="26.76" x2="1" y2="29.23" xlink:href="#linear-gradient"/>
    <linearGradient id="linear-gradient-11" x1="33.94" y1="7.64" x2="33.56" y2="8.53" xlink:href="#linear-gradient"/>
    <linearGradient id="linear-gradient-12" x1="26.56" y1="28.75" x2="25.51" y2="31.19" xlink:href="#linear-gradient"/>
    <linearGradient id="linear-gradient-13" x1="86.39" y1="29.26" x2="85.34" y2="31.71" xlink:href="#linear-gradient"/>
    <linearGradient id="linear-gradient-14" x1="129.5" y1="4.03" x2="128.53" y2="6.3" xlink:href="#linear-gradient"/>
    <linearGradient id="linear-gradient-15" x1="151.55" y1="26.09" x2="150.69" y2="28.08" xlink:href="#linear-gradient"/>
    <linearGradient id="linear-gradient-16" x1="185.99" y1="19.66" x2="185.36" y2="21.11" xlink:href="#linear-gradient"/>
    <linearGradient id="linear-gradient-17" x1="233.82" y1="6.23" x2="232.89" y2="8.41" xlink:href="#linear-gradient"/>
    <linearGradient id="linear-gradient-18" x1="218.17" y1="26.71" x2="217.63" y2="27.98" xlink:href="#linear-gradient"/>
  </defs>
  <g class="cls-1">
    <g id="Layer_2" data-name="Layer 2">
      <g id="Layer_1-2" data-name="Layer 1">
        <g class="cls-20">
          <circle class="cls-2" cx="102.62" cy="10.44" r=".77"/>
          <circle class="cls-4" cx="122.91" cy="23.84" r="1.5"/>
          <circle class="cls-5" cx="2.69" cy="7.57" r="1.53"/>
          <circle class="cls-6" cx="188.73" cy="3.7" r="1.53"/>
          <circle class="cls-9" cx="243.93" cy="23.68" r="1.55"/>
          <path class="cls-8" d="M147.54,3.66l11.86,8.06c.68.46.86,1.39.4,2.07-.46.68-1.39.86-2.07.4-.08-.06-.17-.13-.24-.2l-9.94-10.33Z"/>
          <path class="cls-10" d="M197.17,32.17l3.73,2.53c.21.15.27.44.12.65-.15.21-.44.27-.65.12-.03-.02-.05-.04-.07-.06l-3.13-3.25Z"/>
          <path class="cls-3" d="M207.72,0l7.09,4.82c.41.28.51.83.24,1.24-.28.41-.83.51-1.24.24-.05-.03-.1-.08-.14-.12l-5.94-6.17Z"/>
          <path class="cls-7" d="M77,5.91l7.79,5.29c.45.3.56.91.26,1.36-.3.45-.91.56-1.36.26-.06-.04-.11-.08-.16-.13l-6.53-6.78Z"/>
          <circle class="cls-11" cx="1.16" cy="28.86" r="1.16"/>
          <circle class="cls-13" cx="33.62" cy="8.39" r=".41"/>
          <circle class="cls-12" cx="25.67" cy="30.83" r="1.15"/>
          <circle class="cls-14" cx="85.5" cy="31.34" r="1.15"/>
          <circle class="cls-15" cx="128.67" cy="5.96" r="1.06"/>
          <circle class="cls-16" cx="150.82" cy="27.79" r=".94"/>
          <circle class="cls-18" cx="185.46" cy="20.89" r=".68"/>
          <circle class="cls-17" cx="233.03" cy="8.09" r="1.02"/>
          <circle class="cls-19" cx="217.71" cy="27.79" r=".6"/>
        </g>
      </g>
    </g>
  </g>
</svg>