<?xml version="1.0" encoding="UTF-8"?>
<svg xmlns="http://www.w3.org/2000/svg" xmlns:xlink="http://www.w3.org/1999/xlink" viewBox="0 0 20.36 20.94">
  <defs>
    <style>
      .cls-1 {
        fill: url(#linear-gradient-2);
      }

      .cls-2 {
        fill: url(#linear-gradient);
      }

      .cls-3 {
        isolation: isolate;
      }

      .cls-4 {
        fill: #49f7fc;
        mix-blend-mode: multiply;
        opacity: .22;
      }

      .cls-5 {
        fill: #58e3fc;
      }
    </style>
    <linearGradient id="linear-gradient" x1="17.14" y1="-7.84" x2="8.32" y2="12.76" gradientUnits="userSpaceOnUse">
      <stop offset="0" stop-color="#fffce8"/>
      <stop offset=".52" stop-color="#faf8ea"/>
      <stop offset=".92" stop-color="#f2f2f0"/>
    </linearGradient>
    <linearGradient id="linear-gradient-2" x1="13.24" y1="1.28" x2="6.03" y2="18.11" xlink:href="#linear-gradient"/>
  </defs>
  <g class="cls-3">
    <g id="Layer_2" data-name="Layer 2">
      <g id="Layer_1-2" data-name="Layer 1">
        <g>
          <g>
            <path class="cls-2" d="M11.74,20.42c-.56,0-1.08-.23-1.46-.66l-2.7-3c-.18-.2-.42-.31-.68-.31-.04,0-.09,0-.13,0l-4.01.51c-.09.01-.18.02-.27.02-.71,0-1.34-.37-1.7-.99s-.36-1.36,0-1.98l2.02-3.49c.15-.27.17-.6.04-.88l-1.73-3.64c-.43-.9-.11-1.99.73-2.52.3-.2.66-.31,1.03-.31.15,0,.29.02.44.05l3.94.84c.06.01.13.02.19.02.24,0,.46-.09.64-.26l2.93-2.77c.37-.35.85-.54,1.35-.54,1.02,0,1.88.76,1.99,1.77l.41,4.01c.03.31.21.58.48.73l3.55,1.94c.26.13.5.34.68.62.33.47.43,1.08.27,1.66-.16.57-.56,1.03-1.1,1.27l-3.69,1.63c-.28.13-.48.39-.54.69l-.74,3.96c-.18.96-.99,1.62-1.96,1.62Z"/>
            <path class="cls-5" d="M12.39,1.04c.7,0,1.38.51,1.47,1.31l.41,4.01c.05.48.33.9.75,1.13l3.55,1.94c.22.11.38.27.5.45.49.7.27,1.77-.61,2.16l-3.69,1.63c-.44.2-.75.6-.84,1.07l-.74,3.96c-.15.75-.79,1.19-1.45,1.19-.39,0-.78-.15-1.07-.48l-2.7-3c-.27-.31-.66-.48-1.07-.48-.07,0-.14,0-.2.01l-4,.51c-.07,0-.14.01-.2.01-1.09,0-1.81-1.2-1.25-2.18l2.02-3.49c.24-.42.26-.93.06-1.36l-1.73-3.64c-.34-.72-.04-1.49.54-1.86.22-.14.48-.23.75-.23.11,0,.21.01.33.04l3.95.84c.1.02.2.03.3.03.37,0,.72-.14,1-.4l2.93-2.77c.29-.28.65-.4.99-.4M12.39,0h0c-.63,0-1.24.24-1.71.68l-2.93,2.77c-.08.07-.18.12-.28.12-.03,0-.06,0-.08,0l-3.95-.84c-.17-.04-.36-.06-.54-.06-.48,0-.94.14-1.33.4C.51,3.73.11,5.1.65,6.24l1.73,3.64c.05.12.05.27-.02.39L.34,13.76c-.45.78-.45,1.72,0,2.5.45.78,1.26,1.25,2.15,1.25.11,0,.22,0,.34-.02l3.99-.51s.05,0,.07,0c.11,0,.21.05.29.13l2.7,3c.48.54,1.14.83,1.85.83,1.2,0,2.24-.86,2.47-2.04l.74-3.97c.03-.14.12-.25.25-.31l3.68-1.63c.69-.3,1.19-.89,1.39-1.61.2-.73.07-1.49-.35-2.1-.22-.33-.52-.6-.89-.78l-3.52-1.92c-.12-.07-.2-.18-.21-.32l-.41-4.01c-.14-1.28-1.22-2.25-2.5-2.25h0Z"/>
          </g>
          <path class="cls-4" d="M18.45,12.04l-3.69,1.63c-.44.2-.75.6-.84,1.07l-.74,3.96c-.23,1.19-1.71,1.61-2.52.71l-2.7-3c-.32-.36-.79-.54-1.27-.47l-4,.51c-1.2.16-2.05-1.13-1.45-2.17l2.02-3.49c.24-.42.26-.93.06-1.36l-1.73-3.64c-.34-.72-.33-.87.25-1.24.87,3.27,2.96,6.02,6.66,7.21,3.79,1.22,7.61-.13,10.56-1.88.49.7.27,1.77-.61,2.16Z"/>
          <path class="cls-1" d="M12.39,1.54h0c.42,0,.91.3.97.86l.41,4.01c.07.64.44,1.21,1.01,1.52l3.57,1.95c.12.06.22.15.31.29.16.23.21.53.13.8-.08.28-.27.49-.53.61l-3.69,1.63c-.58.27-1,.8-1.12,1.43l-.74,3.96c-.1.54-.57.79-.95.79-.19,0-.47-.06-.7-.32l-2.7-3c-.37-.41-.89-.65-1.44-.65-.09,0-.18,0-.27.02l-4,.51s-.09,0-.14,0c-.34,0-.64-.18-.81-.48-.18-.3-.18-.65,0-.95l2.02-3.49c.32-.56.35-1.24.08-1.82l-1.73-3.64c-.24-.5,0-1,.37-1.23.14-.09.31-.14.48-.14.07,0,.14,0,.22.03l3.95.84c.13.03.27.04.4.04.5,0,.97-.19,1.34-.54l2.93-2.77c.23-.22.48-.26.65-.26M12.39,1.04c-.35,0-.7.12-.99.4l-2.93,2.77c-.28.26-.63.4-1,.4-.1,0-.2-.01-.3-.03l-3.95-.84c-.11-.02-.22-.04-.33-.04-.28,0-.54.08-.75.23-.58.37-.88,1.14-.54,1.86l1.73,3.64c.2.43.18.94-.06,1.36l-2.02,3.49c-.57.98.16,2.18,1.25,2.18.07,0,.13,0,.2-.01l4-.51c.07-.01.14-.01.2-.01.41,0,.79.18,1.07.48l2.7,3c.3.33.69.48,1.07.48.66,0,1.3-.44,1.45-1.19l.74-3.96c.09-.47.4-.87.84-1.07l3.69-1.63c.88-.39,1.1-1.46.61-2.16-.12-.18-.28-.34-.5-.45l-3.55-1.94c-.42-.23-.7-.65-.75-1.13l-.41-4.01c-.09-.8-.76-1.31-1.47-1.31h0Z"/>
        </g>
      </g>
    </g>
  </g>
</svg>