<?xml version="1.0" encoding="UTF-8"?>
<svg xmlns="http://www.w3.org/2000/svg" xmlns:xlink="http://www.w3.org/1999/xlink" viewBox="0 0 16.98 17.09">
  <defs>
    <style>
      .cls-1 {
        fill: url(#linear-gradient-6);
      }

      .cls-2 {
        fill: url(#linear-gradient-3);
      }

      .cls-3 {
        fill: url(#linear-gradient-2);
      }

      .cls-4 {
        fill: url(#linear-gradient);
      }

      .cls-5 {
        isolation: isolate;
      }

      .cls-6 {
        fill: #49f7fc;
        mix-blend-mode: multiply;
        opacity: .18;
      }

      .cls-7 {
        stroke: url(#linear-gradient-4);
      }

      .cls-7, .cls-8 {
        fill: none;
        stroke-miterlimit: 10;
        stroke-width: .5px;
      }

      .cls-8 {
        stroke: url(#linear-gradient-5);
      }
    </style>
    <linearGradient id="linear-gradient" x1="15.68" y1="5.43" x2="11.76" y2="14.59" gradientUnits="userSpaceOnUse">
      <stop offset="0" stop-color="#fffce8"/>
      <stop offset=".52" stop-color="#faf8ea"/>
      <stop offset=".92" stop-color="#f2f2f0"/>
    </linearGradient>
    <linearGradient id="linear-gradient-2" x1="8.35" y1="12.93" x2="16.98" y2="12.93" xlink:href="#linear-gradient"/>
    <linearGradient id="linear-gradient-3" x1="5.96" y1="1.32" x2="2.77" y2="8.78" xlink:href="#linear-gradient"/>
    <linearGradient id="linear-gradient-4" x1="13.09" y1="0" x2="12.33" y2="10.33" xlink:href="#linear-gradient"/>
    <linearGradient id="linear-gradient-5" x1="3.73" y1="0" x2="3.28" y2="6.09" xlink:href="#linear-gradient"/>
    <linearGradient id="linear-gradient-6" x1="0" y1="7.43" x2="7.01" y2="7.43" xlink:href="#linear-gradient"/>
  </defs>
  <g class="cls-5">
    <g id="Layer_2" data-name="Layer 2">
      <g id="Layer_1-2" data-name="Layer 1">
        <g>
          <path class="cls-4" d="M15.41,13.92c-.16.15-.24.37-.2.59l.26,1.82c.09.55-.5.95-.98.68l-1.61-.9c-.19-.1-.43-.11-.62-.01l-1.66.82c-.49.24-1.05-.19-.95-.73l.36-1.81c.04-.22-.03-.44-.18-.59l-1.29-1.32c-.24-.25-.24-.6-.07-.84.1-.15.26-.27.47-.29l1.83-.22c.22-.03.41-.16.51-.36l.86-1.63c.25-.49.96-.47,1.19.03l.78,1.67c.09.2.28.34.49.38l1.82.31s.06.01.09.02c.48.15.64.77.26,1.12l-1.36,1.26Z"/>
          <path class="cls-6" d="M15.41,13.92c-.16.15-.24.37-.2.59l.26,1.82c.09.55-.5.95-.98.68l-1.61-.9c-.19-.1-.43-.11-.62-.01l-1.66.82c-.49.24-1.05-.19-.95-.73l.36-1.81c.04-.22-.03-.44-.18-.59l-1.29-1.32c-.24-.25-.24-.6-.07-.84.71.67,1.68,1.24,3.01,1.44,2.26.35,4.01-.67,5.03-1.53.48.15.64.77.26,1.12l-1.36,1.26Z"/>
          <path class="cls-3" d="M12.73,9.02h0c.17,0,.31.09.38.24l.78,1.67c.13.27.38.47.68.52l1.82.31c.16.03.28.14.33.29.05.16,0,.31-.12.42l-1.35,1.26c-.22.21-.33.51-.28.81l.27,1.83c.02.12-.02.24-.09.33-.08.09-.2.15-.32.15-.07,0-.14-.02-.2-.05l-1.61-.9c-.14-.08-.29-.12-.45-.12-.14,0-.28.03-.41.1l-1.65.82c-.06.03-.12.04-.19.04-.12,0-.24-.06-.32-.16-.08-.1-.11-.22-.08-.34l.36-1.81c.06-.3-.03-.6-.24-.82l-1.29-1.32c-.11-.12-.15-.28-.1-.43.05-.15.18-.26.34-.28l1.83-.22c.3-.04.56-.22.7-.48l.86-1.63c.07-.14.21-.22.37-.22M12.73,8.77c-.23,0-.47.12-.59.36l-.86,1.63c-.1.19-.29.33-.51.35l-1.83.22c-.55.07-.78.73-.4,1.13l1.29,1.32c.15.16.22.38.18.59l-.36,1.81c-.09.43.26.8.65.8.1,0,.2-.02.3-.07l1.65-.82c.09-.05.19-.07.3-.07.11,0,.22.03.32.08l1.61.9c.11.06.22.09.32.09.38,0,.72-.34.66-.77l-.27-1.83c-.03-.22.05-.44.21-.59l1.35-1.26c.41-.38.2-1.05-.34-1.15l-1.82-.31c-.22-.04-.4-.18-.49-.38l-.78-1.67c-.12-.26-.36-.39-.61-.39h0Z"/>
          <path class="cls-2" d="M5.74,8.23c-.13.13-.19.3-.17.48l.22,1.48c.06.45-.41.78-.8.56l-1.31-.73c-.16-.09-.35-.09-.51-.02l-1.34.67c-.4.2-.86-.15-.77-.59l.28-1.47c.04-.18-.02-.36-.14-.49L.15,7.05c-.19-.2-.19-.47-.06-.67.08-.13.21-.23.38-.25l1.49-.18c.18-.02.34-.12.42-.28l.7-1.33c.2-.4.78-.39.97.02l.63,1.36c.07.16.22.28.4.31l1.48.25c.16.03.28.12.35.24.15.2.14.5-.07.69l-1.1,1.02Z"/>
          <line class="cls-7" x1="12.71" y1="10.34" x2="12.71" y2="0"/>
          <line class="cls-8" x1="3.5" x2="3.5" y2="6.09"/>
          <path class="cls-6" d="M5.74,8.23c-.13.13-.19.3-.17.48l.22,1.48c.06.45-.41.78-.8.56l-1.31-.73c-.16-.09-.35-.09-.51-.02l-1.34.67c-.4.2-.86-.15-.77-.59l.28-1.47c.04-.18-.02-.36-.14-.49L.15,7.05c-.19-.2-.19-.47-.06-.67.61.59,1.96,1.47,4.31,1.09.87-.14,1.72-.49,2.51-.95.15.2.14.5-.07.69l-1.1,1.02Z"/>
          <path class="cls-1" d="M3.56,4.29c.12,0,.22.06.27.17l.63,1.36c.11.24.33.41.59.46l1.48.25c.08.02.14.06.2.14.07.09.08.25-.04.36l-1.11,1.03c-.18.18-.27.43-.24.69l.22,1.48c.01.09-.01.18-.07.24-.06.06-.14.1-.22.1-.05,0-.09-.01-.14-.04l-1.31-.73c-.12-.07-.26-.1-.39-.1-.12,0-.23.02-.35.08l-1.34.67s-.08.03-.13.03c-.09,0-.17-.04-.23-.11-.04-.05-.08-.13-.06-.24l.28-1.46c.06-.25-.02-.52-.21-.72l-1.05-1.07c-.12-.12-.09-.27-.03-.37.03-.05.09-.12.2-.13l1.49-.18c.27-.03.5-.19.61-.41l.7-1.33c.05-.1.14-.16.25-.16M3.56,4.04c-.19,0-.38.1-.48.29l-.7,1.33c-.08.16-.24.26-.42.28l-1.49.18c-.17.02-.3.12-.38.25-.13.2-.13.47.06.67l1.05,1.07c.12.13.18.31.14.49l-.28,1.47c-.07.35.21.65.53.65.08,0,.16-.02.24-.06l1.34-.67c.07-.03.16-.05.24-.05.09,0,.19.02.27.07l1.31.73c.09.05.17.07.26.07.31,0,.59-.28.54-.63l-.22-1.48c-.02-.18.04-.35.17-.48l1.1-1.02c.21-.19.22-.49.07-.69-.07-.12-.19-.21-.35-.24l-1.48-.25c-.18-.03-.33-.15-.4-.31l-.63-1.36c-.1-.21-.29-.31-.49-.31h0Z"/>
        </g>
      </g>
    </g>
  </g>
</svg>