<?xml version="1.0" encoding="UTF-8"?>
<svg xmlns="http://www.w3.org/2000/svg" xmlns:xlink="http://www.w3.org/1999/xlink" viewBox="0 0 45.01 34.47">
  <defs>
    <style>
      .cls-1 {
        fill: url(#linear-gradient-9);
      }

      .cls-2 {
        fill: url(#linear-gradient-4);
      }

      .cls-3 {
        fill: url(#linear-gradient-3);
      }

      .cls-4 {
        fill: url(#linear-gradient-2);
      }

      .cls-5 {
        fill: url(#linear-gradient);
      }

      .cls-6 {
        isolation: isolate;
      }

      .cls-7 {
        fill: #fffcf6;
      }

      .cls-7, .cls-8, .cls-9, .cls-10, .cls-11, .cls-12, .cls-13 {
        mix-blend-mode: overlay;
      }

      .cls-14 {
        fill: #49f7fc;
        mix-blend-mode: multiply;
        opacity: .22;
      }

      .cls-8 {
        fill: #202020;
        opacity: .27;
      }

      .cls-9 {
        fill: url(#linear-gradient-8);
      }

      .cls-10 {
        fill: url(#linear-gradient-6);
      }

      .cls-11 {
        fill: url(#linear-gradient-5);
      }

      .cls-12 {
        fill: url(#linear-gradient-7);
      }

      .cls-15 {
        fill: #58e3fc;
      }

      .cls-16 {
        fill: url(#linear-gradient-10);
      }
    </style>
    <linearGradient id="linear-gradient" x1=".5" y1="17.24" x2="33.93" y2="17.24" gradientUnits="userSpaceOnUse">
      <stop offset="0" stop-color="#3a2c65"/>
      <stop offset=".31" stop-color="#533a7d"/>
      <stop offset=".59" stop-color="#6e4996"/>
      <stop offset=".74" stop-color="#684695"/>
      <stop offset=".93" stop-color="#593e92"/>
      <stop offset="1" stop-color="#523b91"/>
    </linearGradient>
    <linearGradient id="linear-gradient-2" x1="18.49" y1="31.63" x2="14.8" y2="-7.1" gradientUnits="userSpaceOnUse">
      <stop offset=".06" stop-color="#977bfa"/>
      <stop offset=".37" stop-color="#bd87fb"/>
      <stop offset=".79" stop-color="#ec96fe"/>
      <stop offset="1" stop-color="#ff9cff"/>
    </linearGradient>
    <linearGradient id="linear-gradient-3" x1="1" y1="17.24" x2="33.43" y2="17.24" gradientUnits="userSpaceOnUse">
      <stop offset="0" stop-color="#fafeff"/>
      <stop offset=".98" stop-color="#fac2ff"/>
    </linearGradient>
    <linearGradient id="linear-gradient-4" x1="17.22" y1="2" x2="17.22" y2="32.47" gradientUnits="userSpaceOnUse">
      <stop offset=".18" stop-color="#ffcfff"/>
      <stop offset=".83" stop-color="#ffcfff" stop-opacity="0"/>
    </linearGradient>
    <linearGradient id="linear-gradient-5" x1="15.7" y1="-2.62" x2="8.21" y2="30.32" xlink:href="#linear-gradient-4"/>
    <linearGradient id="linear-gradient-6" x1="3.8" y1="14.33" x2="2.54" y2="24.31" xlink:href="#linear-gradient-4"/>
    <linearGradient id="linear-gradient-7" x1="6.55" y1="14.68" x2="5.29" y2="24.66" xlink:href="#linear-gradient-4"/>
    <linearGradient id="linear-gradient-8" x1="28.51" y1="30.4" x2="7.26" y2="19.67" gradientUnits="userSpaceOnUse">
      <stop offset=".04" stop-color="#ffcfff"/>
      <stop offset=".05" stop-color="#ffcfff" stop-opacity=".97"/>
      <stop offset=".21" stop-color="#ffcfff" stop-opacity=".63"/>
      <stop offset=".34" stop-color="#ffcfff" stop-opacity=".36"/>
      <stop offset=".45" stop-color="#ffcfff" stop-opacity=".16"/>
      <stop offset=".54" stop-color="#ffcfff" stop-opacity=".04"/>
      <stop offset=".59" stop-color="#ffcfff" stop-opacity="0"/>
    </linearGradient>
    <linearGradient id="linear-gradient-9" x1="25.61" y1="28.32" x2="44.51" y2="28.32" gradientUnits="userSpaceOnUse">
      <stop offset="0" stop-color="#fffce8"/>
      <stop offset=".52" stop-color="#faf8ea"/>
      <stop offset=".92" stop-color="#f2f2f0"/>
    </linearGradient>
    <linearGradient id="linear-gradient-10" x1="26.11" y1="28.32" x2="44.01" y2="28.32" xlink:href="#linear-gradient-9"/>
  </defs>
  <g class="cls-6">
    <g id="Layer_2" data-name="Layer 2">
      <g id="Layer_1-2" data-name="Layer 1">
        <g>
          <g>
            <path class="cls-5" d="M17.25,33.97c-5.93,0-11.29-3.03-14.35-8.12-.34-.57-.63-1.12-.85-1.63-1.02-2.18-1.54-4.54-1.54-6.99C.5,8.16,7.59.81,16.65.5h0c.89,0,1.56.67,1.56,1.5,0,.5-.25.96-.66,1.24-2.56,1.87-4.1,4.89-4.1,8.06,0,4.25,2.69,8.04,6.7,9.46.46.16.95.29,1.46.39.64.11,1.25.17,1.85.17,3.04,0,5.88-1.37,7.8-3.76.29-.36.71-.56,1.17-.56.19,0,.38.04.55.11.62.25.99.85.94,1.52-.7,8.61-8.03,15.36-16.68,15.36Z"/>
            <path class="cls-15" d="M16.72,1c.55,0,1,.45,1,1,0,.34-.17.65-.44.83-2.71,1.98-4.32,5.14-4.32,8.47,0,4.46,2.83,8.45,7.03,9.93.48.17,1,.31,1.53.41.68.12,1.32.18,1.95.18,3.19,0,6.18-1.44,8.19-3.95.19-.24.48-.37.78-.37.12,0,.25.02.37.07.41.16.66.57.63,1.01-.68,8.35-7.79,14.9-16.18,14.9-5.75,0-10.95-2.94-13.93-7.87-.33-.55-.61-1.08-.82-1.57-1-2.13-1.5-4.41-1.5-6.79C1,8.43,7.88,1.31,16.67,1c.01,0,.02,0,.03,0h.01M16.72,0h0s-.07,0-.08,0C7.31.32,0,7.89,0,17.23c0,2.53.54,4.96,1.6,7.22.22.51.52,1.08.87,1.66,3.15,5.23,8.68,8.36,14.78,8.36,8.9,0,16.45-6.95,17.17-15.82.07-.88-.43-1.69-1.25-2.02-.24-.09-.48-.14-.74-.14-.61,0-1.18.27-1.56.75-1.82,2.27-4.52,3.57-7.41,3.57-.58,0-1.16-.05-1.78-.16-.47-.09-.93-.21-1.37-.37-3.81-1.34-6.36-4.95-6.36-8.98,0-3.01,1.46-5.88,3.91-7.66.52-.35.85-.97.85-1.64,0-1.1-.9-2-2-2h0Z"/>
          </g>
          <g>
            <g>
              <path class="cls-4" d="M32.43,18.49c-.64,7.83-7.19,13.98-15.18,13.98-5.55,0-10.4-2.96-13.07-7.39-.29-.48-.55-.97-.77-1.48-.91-1.94-1.41-4.1-1.41-6.37C2,8.99,8.54,2.28,16.71,2c-2.88,2.09-4.76,5.47-4.76,9.3,0,5.02,3.21,9.29,7.7,10.87.54.19,1.11.34,1.69.45.69.12,1.39.19,2.12.19,3.63,0,6.86-1.69,8.97-4.32Z"/>
              <path class="cls-3" d="M16.71,2h0M16.71,2c-2.88,2.09-4.76,5.47-4.76,9.3,0,5.02,3.21,9.29,7.7,10.87.54.19,1.11.34,1.69.45.69.12,1.39.19,2.12.19,3.63,0,6.86-1.69,8.97-4.32-.64,7.83-7.19,13.98-15.18,13.98-5.55,0-10.4-2.96-13.07-7.39-.29-.48-.55-.97-.77-1.48-.91-1.94-1.41-4.1-1.41-6.37C2,8.99,8.54,2.28,16.71,2M16.71,1h0s-.02,0-.03,0C7.88,1.31,1,8.43,1,17.23c0,2.38.51,4.67,1.5,6.79.21.5.49,1.02.82,1.57,2.97,4.93,8.18,7.87,13.93,7.87,8.39,0,15.49-6.54,16.18-14.9.04-.44-.22-.85-.63-1.01-.12-.05-.25-.07-.37-.07-.3,0-.59.13-.78.37-2.01,2.51-5,3.95-8.19,3.95-.63,0-1.27-.06-1.95-.18-.53-.1-1.05-.24-1.53-.41-4.21-1.48-7.03-5.47-7.03-9.93,0-3.33,1.62-6.5,4.32-8.47.27-.18.44-.48.44-.83,0-.55-.45-1-1-1h0ZM16.71,3h0,0Z"/>
            </g>
            <path class="cls-8" d="M32.43,18.49c-.64,7.83-7.19,13.98-15.18,13.98-5.55,0-10.4-2.96-13.07-7.39,1.64.55,3.4.87,5.29.92,5.31.14,9.13-1.32,11.87-3.38.69.12,1.39.19,2.12.19,3.63,0,6.86-1.69,8.97-4.32Z"/>
            <g class="cls-13">
              <path class="cls-2" d="M14.46,3.01c-2.07,2.24-3.26,5.21-3.26,8.3,0,6.76,5.5,12.25,12.25,12.25,2.91,0,5.67-1.02,7.85-2.85-1.57,6.33-7.36,11.01-14.06,11.01-7.99,0-14.49-6.5-14.49-14.49,0-7.07,4.98-12.93,11.71-14.22M16.71,2c-8.17.28-14.71,6.99-14.71,15.23s6.82,15.24,15.24,15.24,14.54-6.15,15.18-13.98c-2.11,2.63-5.34,4.32-8.97,4.32-6.35,0-11.5-5.15-11.5-11.5,0-3.83,1.88-7.21,4.76-9.3h0ZM32.43,18.49h0,0Z"/>
            </g>
            <path class="cls-11" d="M19.65,22.17c-1.64,1.04-3.6,1.85-5.92,2.21-4.48.7-7.91.1-10.32-.78-.91-1.94-1.41-4.1-1.41-6.37C2,8.99,8.54,2.28,16.71,2c-2.88,2.09-4.76,5.47-4.76,9.3,0,5.02,3.21,9.29,7.7,10.87Z"/>
            <ellipse class="cls-10" cx="3.56" cy="16.18" rx="1.39" ry="2.39"/>
            <ellipse class="cls-12" cx="6.04" cy="18.74" rx=".78" ry="1.24"/>
            <path class="cls-9" d="M6.73,26.03s5.71,6.35,13.28,4.95,9.48-7.85,9.48-7.85c0,0-5.49,1.88-9.41.45s-6.06-3.64-6.06-3.64"/>
          </g>
        </g>
        <g>
          <g>
            <path class="cls-1" d="M32.66,33.73c-1.25-.05-1.98-.62-2.38-1.09-.38-.44-.58-.93-.68-1.27-.55,0-1.54-.06-2.38-.36-1.63-.59-1.69-1.75-1.58-2.39.28-1.58,1.87-2.49,4.38-2.5,0-.48.09-1.16.52-1.79.54-.77,1.45-1.24,2.7-1.38.34-.04.64-.06.92-.06,1.21,0,2.08.33,2.6.97.08.1.15.21.21.31.32-.18.75-.37,1.23-.45.14-.03.3-.04.45-.04.59,0,1.12.2,1.57.59,1.02.87,1.59,1.77,1.86,2.27.15-.02.33-.04.52-.04.64,0,1.16.21,1.5.6.38.44.51,1.08.38,1.91-.05.36-.13.63-.22.87-.36.96-1.11,1.5-2.12,1.5-.09,0-.17,0-.25-.01-.16.76-.77,1.69-2.38,1.96-.33.06-.67.09-1,.09-1.25,0-2.23-.4-2.76-.68-.39.44-1.2,1-2.75,1-.11,0-.21,0-.33,0Z"/>
            <path class="cls-15" d="M34.16,23.4c2.53,0,2.53,1.57,2.53,1.57,0,0,.7-.6,1.59-.74.12-.02.24-.03.37-.03.41,0,.84.12,1.25.47,1.41,1.21,1.91,2.46,1.91,2.46,0,0,.36-.11.8-.11.72,0,1.63.31,1.38,1.93-.04.29-.1.54-.19.74-.37.99-1.11,1.2-1.66,1.2-.4,0-.71-.11-.71-.11,0,0,.23,1.69-1.99,2.07-.32.06-.63.08-.92.08-1.73,0-2.9-.85-2.9-.85,0,0-.45,1.17-2.61,1.17-.1,0-.2,0-.3,0-.99-.04-1.63-.45-2.02-.92-.58-.67-.67-1.45-.67-1.45,0,0-.13,0-.35,0-.5,0-1.46-.04-2.26-.33-.8-.29-1.43-.83-1.25-1.83.33-1.87,2.82-2.08,3.92-2.08.32,0,.52.02.52.02,0,0-.67-2.79,2.72-3.19.32-.04.6-.05.86-.05M34.16,22.4c-.31,0-.64.02-.98.06-1.4.16-2.42.7-3.05,1.59-.37.53-.53,1.1-.59,1.58-2.5.12-4.09,1.16-4.39,2.9-.23,1.35.46,2.42,1.89,2.95.73.26,1.54.36,2.19.38.14.34.35.74.67,1.11.45.53,1.3,1.2,2.73,1.26.12,0,.23,0,.35,0,1.45,0,2.33-.45,2.85-.9.62.28,1.54.58,2.66.58.37,0,.73-.03,1.1-.1,1.53-.26,2.33-1.1,2.65-1.94,1.15-.04,2.05-.71,2.48-1.85.1-.23.18-.54.24-.94.15-.98-.02-1.75-.5-2.31-.3-.35-.87-.77-1.87-.77-.09,0-.17,0-.25,0-.33-.55-.91-1.35-1.81-2.12-.54-.46-1.19-.71-1.9-.71-.18,0-.36.02-.54.05-.36.06-.69.17-.97.3-.43-.52-1.29-1.13-2.97-1.13h0Z"/>
          </g>
          <path class="cls-7" d="M43.97,28.94c-.04.29-.1.54-.19.74-1.4-1.35-3.46-1.32-3.46-1.32,0,0,.39-1.59-.79-2.17-1.16-.58-2.84.51-2.84.51,0,0-1.6-2.15-3.9-1.25-2.3.9-1.16,3.16-1.16,3.16,0,0-2.78-.97-3.87,0-.58.52-.54,1.32-.38,1.94-.8-.29-1.43-.83-1.25-1.83.42-2.42,4.44-2.07,4.44-2.07,0,0-.67-2.79,2.72-3.19,3.39-.39,3.39,1.51,3.39,1.51,0,0,1.8-1.51,3.2-.31,1.41,1.21,1.91,2.46,1.91,2.46,0,0,2.58-.79,2.18,1.82Z"/>
          <path class="cls-14" d="M43.97,28.94c-.04.29-.1.54-.19.74-.64,1.72-2.37,1.09-2.37,1.09,0,0,.23,1.69-1.99,2.07-2.23.39-3.83-.77-3.83-.77,0,0-.49,1.28-2.91,1.16-.99-.04-1.63-.45-2.02-.92,2.66-.05,3.11-2.21,4.54-2.37,6.49-.76,4.24-3.64,3.07-5.72.51-.09,1.09-.01,1.62.44,1.41,1.21,1.91,2.46,1.91,2.46,0,0,2.58-.79,2.18,1.82Z"/>
          <path class="cls-16" d="M34.16,23.9c1.93,0,2.02.97,2.03,1.07,0,.19.11.37.29.45.07.03.14.05.21.05.12,0,.23-.04.32-.12,0,0,.61-.51,1.35-.63.09-.02.19-.02.28-.02.35,0,.65.11.92.35,1.29,1.1,1.76,2.25,1.77,2.26.08.2.27.32.47.32.05,0,.1,0,.14-.02,0,0,.31-.09.65-.09s.6.08.74.25c.22.26.21.75.15,1.11-.04.27-.09.47-.16.64-.22.59-.61.88-1.19.88-.3,0-.54-.08-.54-.08h0c-.06-.02-.11-.03-.17-.03-.11,0-.22.04-.31.11-.14.11-.2.28-.18.46,0,.05.15,1.21-1.58,1.51-.28.05-.56.07-.84.07-1.54,0-2.6-.75-2.61-.76-.08-.06-.18-.09-.29-.09-.05,0-.09,0-.14.02-.15.04-.27.15-.33.29-.02.04-.4.86-2.14.86-.09,0-.18,0-.28,0-.72-.03-1.27-.28-1.67-.75-.47-.54-.55-1.18-.55-1.18-.03-.25-.24-.44-.5-.44,0,0-.02,0-.03,0,0,0-.13,0-.32,0-.47,0-1.36-.04-2.09-.3-.96-.35-1-.87-.93-1.28.26-1.51,2.48-1.67,3.42-1.67.28,0,.47.01.48.02.01,0,.03,0,.04,0,.14,0,.28-.06.38-.17.1-.12.15-.28.11-.44,0,0-.2-.91.31-1.62.37-.52,1.04-.84,1.99-.95.29-.03.56-.05.81-.05M34.16,23.4c-.26,0-.55.02-.86.05-3.39.39-2.72,3.19-2.72,3.19,0,0-.2-.02-.52-.02-1.1,0-3.59.21-3.92,2.08-.17,1,.45,1.54,1.25,1.83.79.29,1.75.33,2.26.33.22,0,.35,0,.35,0,0,0,.09.79.67,1.45.39.47,1.03.87,2.02.92.11,0,.21,0,.3,0,2.15,0,2.61-1.17,2.61-1.17,0,0,1.17.85,2.9.85.29,0,.6-.02.92-.08,2.23-.38,1.99-2.07,1.99-2.07,0,0,.31.11.71.11.55,0,1.29-.21,1.66-1.2.09-.2.15-.45.19-.74.25-1.62-.66-1.93-1.38-1.93-.43,0-.8.11-.8.11,0,0-.49-1.25-1.91-2.46-.4-.35-.84-.47-1.25-.47-.13,0-.25.01-.37.03-.89.15-1.59.74-1.59.74,0,0,0-1.57-2.53-1.57h0Z"/>
          <ellipse class="cls-7" cx="38.82" cy="31.75" rx="1.48" ry=".73"/>
          <ellipse class="cls-7" cx="33.58" cy="25.73" rx="1.48" ry=".73"/>
          <path class="cls-7" d="M39.01,30.5c0,.2-.33.37-.74.37s-.74-.16-.74-.37.33-.37.74-.37.74.16.74.37Z"/>
          <ellipse class="cls-7" cx="34.03" cy="27.13" rx=".74" ry=".37"/>
        </g>
      </g>
    </g>
  </g>
</svg>