<?xml version="1.0" encoding="UTF-8"?>
<svg id="Layer_2" data-name="Layer 2" xmlns="http://www.w3.org/2000/svg" viewBox="0 0 23.28 23.85">
  <defs>
    <style>
      .cls-1 {
        fill: #5384ff;
      }
    </style>
  </defs>
  <g id="Layer_1-2" data-name="Layer 1">
    <g>
      <path class="cls-1" d="M13.2,22.6c-.77,0-1.49-.32-2.01-.9l-2.7-3s-.1-.07-.15-.07l-4.03.52c-.12.02-.24.02-.36.02-.96,0-1.85-.52-2.34-1.36-.49-.85-.49-1.86,0-2.71l2.02-3.49c.03-.06.04-.13,0-.19l-1.73-3.64c-.4-.84-.34-1.82.16-2.61.5-.79,1.35-1.27,2.28-1.27.19,0,.39.02.58.06l3.94.84s.02,0,.03,0c.08,0,.12-.02.16-.05l2.93-2.77c.51-.48,1.16-.74,1.85-.74,1.4,0,2.56,1.04,2.7,2.43l.42,4.01c0,.07.05.13.11.16l3.54,1.93c.91.5,1.45,1.45,1.41,2.49-.04,1.04-.66,1.94-1.61,2.37l-3.69,1.64c-.06.03-.11.08-.12.15l-.74,3.97c-.24,1.28-1.36,2.21-2.67,2.21Z"/>
      <path class="cls-1" d="M13.85,2.5c.7,0,1.37.51,1.46,1.31l.42,4.01c.05.48.33.9.75,1.13l3.54,1.93c1.06.58,1,2.12-.11,2.61l-3.69,1.64c-.44.19-.75.59-.84,1.06l-.74,3.97c-.14.75-.78,1.19-1.44,1.19-.39,0-.78-.15-1.08-.49l-2.7-3c-.28-.31-.67-.48-1.08-.48-.06,0-.12,0-.19.01l-4,.52c-.07,0-.13.01-.2.01-1.09,0-1.82-1.2-1.25-2.19l2.02-3.49c.24-.42.26-.92.06-1.36l-1.73-3.64c-.47-.99.28-2.08,1.31-2.08.1,0,.21.01.32.03l3.94.84c.1.02.2.03.31.03.37,0,.73-.14,1-.4l2.93-2.77c.29-.28.65-.4.99-.4M13.85,0h0c-1.01,0-1.97.38-2.71,1.08l-2.53,2.39-3.41-.73c-.28-.06-.56-.09-.84-.09-1.36,0-2.61.69-3.34,1.85-.73,1.15-.81,2.58-.23,3.81l1.49,3.15-1.75,3.02c-.72,1.24-.72,2.72,0,3.96.71,1.22,2.02,1.98,3.42,1.98.17,0,.35-.01.52-.03l3.46-.45,2.33,2.59c.75.84,1.82,1.31,2.94,1.31,1.91,0,3.55-1.36,3.9-3.23l.64-3.43,3.19-1.41c1.39-.62,2.29-1.94,2.35-3.46.06-1.52-.73-2.91-2.06-3.64l-3.06-1.67-.36-3.47c-.21-2.02-1.91-3.55-3.94-3.55h0Z"/>
    </g>
  </g>
</svg>